<svg width="74" height="68" viewBox="0 0 74 68" fill="none" xmlns="http://www.w3.org/2000/svg">
<path fill-rule="evenodd" clip-rule="evenodd" d="M4.90571 22.4259C6.70171 16.0259 7.60771 9.32534 8.43771 2.82534C8.61171 1.42534 7.64072 0.125535 6.27272 0.0255345C4.90372 -0.174466 3.65172 0.82612 3.47772 2.12612C2.67872 8.42612 1.82373 14.9255 0.0947256 21.0255C-0.280274 22.3255 0.491716 23.7261 1.81972 24.1261C3.14672 24.5261 4.52971 23.7259 4.90571 22.4259Z" fill="#1B1C37"/>
<path fill-rule="evenodd" clip-rule="evenodd" d="M30.3687 41.8251C40.8797 31.5251 50.0377 19.9251 60.8307 9.8251C61.8387 8.9251 61.8927 7.3251 60.9517 6.3251C60.0097 5.3251 58.4257 5.22549 57.4177 6.22549C46.5937 16.3255 37.4057 27.9255 26.8637 38.2255C25.8797 39.2255 25.8657 40.8251 26.8337 41.8251C27.8007 42.7251 29.3847 42.8251 30.3687 41.8251Z" fill="#1B1C37"/>
<path fill-rule="evenodd" clip-rule="evenodd" d="M70.7977 61.1264C64.7817 61.4264 58.7657 61.7259 52.7487 62.0259C51.3707 62.0259 50.3067 63.2264 50.3737 64.6264C50.4417 66.0264 51.6147 67.0259 52.9937 67.0259C59.0197 66.7259 65.0447 66.4264 71.0697 66.1264C72.4477 66.0264 73.5047 64.8262 73.4297 63.4262C73.3547 62.1262 72.1747 61.0264 70.7977 61.1264Z" fill="#1B1C37"/>
</svg>
